# xmcd
#
# Track frame offsets:
#	150
#	13234
#	24096
#	36721
#	48936
#	59032
#	72666
#	84211
#	96766
#	108411
#	128941
#	142316
#	153179
#	165169
#	178159
#	194327
#	206579
#
# Disc length: 2917 seconds
#
# Revision: 3
# Processed by: cddbd v1.5.2PL0 Copyright (c) Steve Scherf et al.
# Submitted via: EasyCDDAExtractor 15.2.5.1
#
DISCID=f20b6311
DTITLE=No.1 Hit's Selection 500 - The Great Billboard Vol. 10
DYEAR=1964
DGENRE=Top 40
TTITLE0=Marry Wells/My Guy
TTITLE1=The Beatles/Love Me Do
TTITLE2=The Dixie Cups/Chapel Of Love
TTITLE3=Peter and Gordon/A World Without Love
TTITLE4=The Beach Boys/I Get Around
TTITLE5=The 4 Seasons/Rag Doll
TTITLE6=The Beatles/A Hard Day's Night
TTITLE7=Dean Martin/Everybody Loves Somebody
TTITLE8=The Supremes/Where Did Our Love Go
TTITLE9=The Animals/House Of The Rising Sun
TTITLE10=Roy Orbison/Oh, Pretty Woman
TTITLE11=Manfred Mann/Do Wah Diddy Diddy
TTITLE12=The Supremes/Baby Love
TTITLE13=The Shangri-Las/Leader Of The Pack
TTITLE14=Lorne Greene/Ringo
TTITLE15=Bobby Vinton/Mr. Lonely
TTITLE16=The Supremes/Come See About Me
EXTD=YEAR: 1964
EXTT0=
EXTT1=
EXTT2=
EXTT3=
EXTT4=
EXTT5=
EXTT6=
EXTT7=
EXTT8=
EXTT9=
EXTT10=
EXTT11=
EXTT12=
EXTT13=
EXTT14=
EXTT15=
EXTT16=
PLAYORDER=
